<?xml version="1.0" standalone="no"?><!DOCTYPE svg PUBLIC "-//W3C//DTD SVG 1.1//EN" "http://www.w3.org/Graphics/SVG/1.1/DTD/svg11.dtd"><svg t="1661653107431" class="icon" viewBox="0 0 1024 1024" version="1.1" xmlns="http://www.w3.org/2000/svg" p-id="1241" width="500" height="500" data-spm-anchor-id="a313x.7781069.0.i5" xmlns:xlink="http://www.w3.org/1999/xlink"><path d="M584.22464 736.64l0.64 0.544c24.736 20.672 41.824 48.96 57.728 77.12 3.744 6.624 7.584 13.984 6.112 21.44-1.792 9.408-11.712 15.36-21.152 15.776-9.472 0.416-18.528-3.456-27.168-7.392a902.688 902.688 0 0 1-137.504-77.856l121.344-29.632z" fill="#e6e6e6" p-id="1242"></path><path d="M976.67264 196.48a32 32 0 0 0-25.536 33.472c0.16 2.464-4.64 9.696-14.784 15.264-6.72 3.68-13.952 6.4-21.12 9.216-10.112 3.936-21.568 8.416-33.088 15.264a84.736 84.736 0 0 0-21.856 19.104 412.384 412.384 0 0 0-26.336-16.736l-9.408-5.696c-17.344-10.464-37.696-24.32-40.96-38.88a32 32 0 0 0-60.928-4.8c-27.744 69.28-6.112 153.6 51.52 200.608 3.072 2.496 6.304 4.96 9.568 7.424 8.672 6.592 17.664 13.376 19.264 18.24 0.96 3.136-1.504 9.632-6.208 13.6-8.224 6.656-21.152 8.48-32.16 8.832-31.296 0-66.368-15.52-98.752-43.648a309.6 309.6 0 0 1-19.584-19.04c-15.616-16.48-29.76-34.496-44.736-53.6-16.512-20.992-33.568-42.72-53.12-62.784-60.768-62.88-150.784-100.384-240.768-100.384-82.368 0-156.832 31.008-209.696 87.296a280.224 280.224 0 0 0-62.048 105.44 278.624 278.624 0 0 0-12.672 123.776c0 0.096 0.16 2.336-1.408 8.256-2.4 9.28-7.296 21.632-14.016 35.52-25.472 51.424 18.176 92.32 41.6 114.272l5.696 5.376a414.816 414.816 0 0 0 86.688 63.424c72.928 39.776 160.992 59.936 261.792 59.936 19.712 0 40-0.8 60.448-2.4 3.072-0.224 6.496-0.64 9.696-0.896a919.776 919.776 0 0 0 120 66.752c7.84 3.552 19.488 8.864 32.448 8.864 0.672 0 1.344 0 2.016-0.064 17.92-0.768 33.12-12.8 36.224-28.704 2.624-13.664-3.968-25.344-7.904-32.32a477.472 477.472 0 0 0-26.976-43.456c24.288-7.168 48.64-15.776 72.192-26.432 50.72-23.456 96.64-60.48 132.64-106.816 16.96-21.44 31.68-45.12 43.744-70.336 14.816-30.848 25.056-62.944 30.464-95.584 30.592-19.52 68.352-48.48 91.616-89.76 26.816-46.464 31.584-103.584 13.056-156.768a32.064 32.064 0 0 0-36.576-20.8zM633.05664 832.672c-0.256 0.8-2.88 2.72-6.176 2.88-5.696 0.384-12.32-2.56-19.84-5.984a884.224 884.224 0 0 1-82.624-43.68 808.896 808.896 0 0 0 71.552-13.856c12.384 15.456 22.976 32.928 32.736 50.176 1.184 2.08 4.768 8.416 4.352 10.464z m187.424-300.896a311.328 311.328 0 0 1-36.416 58.528c-29.92 38.496-67.648 69.024-108.896 88.064-73.6 33.408-158.208 45.984-216.128 50.688-111.744 8.64-210.464-8.448-286.24-49.792a350.88 350.88 0 0 1-73.504-53.76l-6.08-5.696c-3.84-3.616-8.224-7.776-12.416-12.064a313.792 313.792 0 0 0 63.2 6.528c56.928 0 112.544-14.336 171.584-31.584a16 16 0 0 0-8.96-30.72c-82.528 24.128-157.76 41.728-237.504 19.84 6.56-14.4 11.808-27.744 14.72-38.944 3.104-11.84 4.096-22.176 3.008-32.064a215.616 215.616 0 0 1 9.92-96.128 216.48 216.48 0 0 1 47.904-81.632c40.64-43.264 98.528-67.104 163.072-67.104 72.96 0 145.792 30.24 194.848 80.96 17.216 17.696 32.48 37.12 48.64 57.728 15.232 19.392 30.976 39.456 48.768 58.24 7.68 8.032 15.392 15.744 23.872 23.136 31.2 27.104 80.928 59.392 140.8 59.392l3.936-0.032c22.144-0.832 41.28-5.92 57.184-15.296a314.752 314.752 0 0 1-5.312 11.712z m124.16-189.44c-14.976 26.656-40.288 49.664-82.016 74.72a32.32 32.32 0 0 0-2.976 2.016c-9.28-18.176-24.576-29.76-37.216-39.36l-7.904-6.08c-18.656-15.232-31.36-37.376-36.832-61.184 4.512 2.976 9.088 5.856 13.6 8.576l9.728 5.888c17.888 10.752 34.752 20.896 43.2 34.528a32 32 0 0 0 58.88-12.16c2.56-17.536 7.648-22.016 12.224-24.832 6.56-3.904 14.624-7.04 23.2-10.4 6.624-2.592 13.248-5.216 19.68-8.224a117.248 117.248 0 0 1-13.536 36.544z" fill="#e6e6e6" p-id="1243" data-spm-anchor-id="a313x.7781069.0.i4"></path><path d="M229.50464 393.6a16.16 16 90 1 0 32 0 16.16 16 90 1 0-32 0Z" fill="#e6e6e6" p-id="1244"></path></svg>
